<?xml version="1.0" encoding="utf-8"?>
<!-- Generator: Adobe Illustrator 25.4.1, SVG Export Plug-In . SVG Version: 6.00 Build 0)  -->
<svg version="1.1" id="Capa_1" xmlns="http://www.w3.org/2000/svg" xmlns:xlink="http://www.w3.org/1999/xlink" x="0px" y="0px"
	 viewBox="0 0 100 100" style="enable-background:new 0 0 100 100;" xml:space="preserve">
<style type="text/css">
	.st0{fill:#C13A05;}
	.st1{fill:#7F0003;}
	.st2{fill:#020100;}
	#vn{
            fill: black;
        }
        @keyframes Volcan {
            from {
                opacity: 1;
            }
            to {
                opacity: 0;
            }
        }
        #vn {
            animation: Volcan 2s linear 1s infinite alternate;
        }
        
</style>
<g id="parte">
	<path class="st0" d="M8.6,24.5c-1.3,0-2.4-1-2.5-2.3c0,0,0-0.1,0-0.1c0-1.4,1.1-2.5,2.5-2.5h0c1.3,0.1,2.4,1.1,2.5,2.5
		C11,23.4,10,24.5,8.6,24.5z"/>
	<path class="st1" d="M55.9,52.7C58,39.4,63.8,32,72.3,32c7.4,0,13.5,5.8,16.2,14.8c0.4,1-0.1,2.2-1.1,2.6c-0.1,0-0.2,0.1-0.3,0.1
		c-1.1,0.2-2-0.5-2.3-1.7c-2.2-7.5-7-12-12.6-12c-6.3-0.1-11,5.7-12.7,16.9"/>
	<path class="st1" d="M50.3,52.8c0-23.1,14.3-42,33.5-42c1-0.1,1.9,0.6,2,1.5c0,0.1,0,0.2,0,0.3c0,1.1-0.7,1.7-2,1.9
		c-17,1.7-29.5,17.3-29.5,38.3"/>
	<path class="st1" d="M45.1,52.8c0-14-12.3-26.4-26.2-27.7c-1.1,0-2-0.9-2-2c-0.1-1,0.6-1.8,1.6-1.9c0.1,0,0.3,0,0.4,0
		c16,1.6,30.1,15.3,30.1,31.4v0.2"/>
	<path class="st1" d="M39.2,52.9c-1.8-7.1-5.6-10.8-10.4-10.8c-5.4,0-10,4.8-12.6,13.3c-0.1,0.9-1,1.6-1.9,1.5
		c-0.1,0-0.3-0.1-0.4-0.1c-1-0.2-1.6-1.1-1.4-2c0-0.1,0.1-0.2,0.1-0.4c3.1-10.1,9-16,16.2-16c6.9,0,12.2,5.4,14.5,14.5"/>
	<path class="st0" d="M11.7,61.1c1.3,0.1,2.4,1.2,2.5,2.6c0,1.3-1.1,2.4-2.5,2.5c-1.4,0.1-2.6-1-2.7-2.5
		C9.1,62.2,10.3,61.1,11.7,61.1z"/>
	<circle class="st0" cx="48" cy="28" r="2.6"/>
	<path class="st0" d="M89.2,54.8c1.3,0.1,2.4,1.2,2.5,2.6c0,1.3-1.1,2.4-2.5,2.5c-1.4,0.1-2.6-1-2.7-2.5
		C86.6,55.9,87.8,54.8,89.2,54.8z"/>
	<path class="st0" d="M94.5,12.5c0,1.3-1.1,2.4-2.5,2.5c-1.3-0.1-2.4-1.1-2.5-2.5c0-1.4,1.2-2.6,2.6-2.6
		C93.4,9.9,94.5,11.1,94.5,12.5C94.5,12.5,94.5,12.5,94.5,12.5z"/>
</g>
<g id="volcan">
	<g id="vf">
		<defs>
			<path id="SVGID_1_" d="M59.4,52.5L93.1,88v1.5H7V88l32.1-35.4"/>
		</defs>
		<use xlink:href="#SVGID_1_"  style="overflow:visible;fill:#020100;"/>
		<clipPath id="SVGID_00000081613610965212003350000005379234964704820634_">
			<use xlink:href="#SVGID_1_"  style="overflow:visible;"/>
		</clipPath>
		<g transform="matrix(1 0 0 1 0 0)" style="clip-path:url(#SVGID_00000081613610965212003350000005379234964704820634_);">
			
				<image style="overflow:visible;" width="768" height="512" xlink:href="chaiten.jpeg"  transform="matrix(0.1162 0 0 0.1162 5.552 38.2128)">
			</image>
		</g>
	</g>
	<path id="vn" class="st2" d="M59.5,52.6L93.2,88v1.5H7.1V88l32.1-35.4"/>
</g>
</svg>
